<svg width="48" height="48" fill="none" xmlns="http://www.w3.org/2000/svg"><path d="M24 12.48a11.52 11.52 0 100 23.04 11.52 11.52 0 000-23.04zm0 19.2A7.68 7.68 0 1131.68 24 7.704 7.704 0 0124 31.68zM34.56 0H13.44A13.44 13.44 0 000 13.44v21.12A13.44 13.44 0 0013.44 48h21.12A13.44 13.44 0 0048 34.56V13.44A13.44 13.44 0 0034.56 0zm9.6 34.56a9.6 9.6 0 01-9.6 9.6H13.44a9.6 9.6 0 01-9.6-9.6V13.44a9.6 9.6 0 019.6-9.6h21.12a9.6 9.6 0 019.6 9.6v21.12zm-4.8-23.04a2.88 2.88 0 11-5.76 0 2.88 2.88 0 015.76 0z" fill="#fff"/></svg>