<svg width="40" height="40" fill="none" xmlns="http://www.w3.org/2000/svg"><path d="M2.14.134C1.163.47.335 1.361.069 2.362c-.133.484-.063 3.486.117 4.978.508 4.299 1.61 8.09 3.47 11.919 1.867 3.853 4.047 6.901 7.11 9.973 3.072 3.063 6.12 5.244 9.972 7.112 3.829 1.86 7.619 2.962 11.916 3.47 1.493.18 4.494.25 4.978.117.75-.195 1.462-.727 1.891-1.399.477-.734.477-.727.477-5.408 0-3.775-.016-4.307-.133-4.65a3.175 3.175 0 00-1.313-1.712c-.625-.399-1.039-.5-2.258-.555-2.141-.078-3.892-.36-5.83-.914-1.32-.375-2.148-.43-2.883-.188-.54.18-.516.164-3.274 2.259l-2.337 1.766-.969-.563c-4.329-2.509-7.08-5.26-9.572-9.574l-.563-.969 1.766-2.345c.977-1.29 1.852-2.454 1.954-2.587.266-.359.484-1.156.484-1.766 0-.375-.086-.836-.32-1.649-.586-2.079-.805-3.447-.93-5.736-.07-1.384-.14-1.743-.43-2.306-.187-.367-.797-.993-1.18-1.22-.71-.414-.75-.421-5.384-.414-3.844 0-4.337.016-4.688.133z" fill="#18171C"/></svg>