<svg width="28" height="28" fill="none" xmlns="http://www.w3.org/2000/svg"><path d="M1.498.094a2.346 2.346 0 00-1.45 1.56c-.093.338-.044 2.44.082 3.484.356 3.01 1.127 5.663 2.429 8.343 1.307 2.697 2.833 4.831 4.978 6.981 2.15 2.145 4.283 3.671 6.98 4.979 2.68 1.302 5.333 2.073 8.341 2.429 1.045.126 3.145.175 3.485.082a2.325 2.325 0 001.323-.98c.334-.514.334-.508.334-3.785 0-2.643-.01-3.015-.093-3.256a2.221 2.221 0 00-.919-1.198c-.438-.279-.727-.35-1.58-.388a16.226 16.226 0 01-4.081-.64c-.925-.263-1.505-.301-2.019-.131-.377.125-.36.114-2.292 1.58l-1.635 1.237-.679-.394c-3.03-1.756-4.955-3.682-6.7-6.702l-.394-.678 1.236-1.641c.684-.903 1.296-1.718 1.367-1.811.187-.252.34-.81.34-1.237 0-.262-.06-.585-.225-1.154-.41-1.455-.563-2.413-.65-4.016-.05-.968-.099-1.22-.301-1.614C9.243.887 8.817.45 8.549.291c-.498-.29-.526-.295-3.77-.29-2.69 0-3.035.011-3.281.093z" fill="#18171C"/></svg>